<svg width="19" height="19" viewBox="0 0 19 19" fill="none" xmlns="http://www.w3.org/2000/svg">
<path d="M8.70837 1.58333H7.12504C3.16671 1.58333 1.58337 3.16666 1.58337 7.125V11.875C1.58337 15.8333 3.16671 17.4167 7.12504 17.4167H11.875C15.8334 17.4167 17.4167 15.8333 17.4167 11.875V10.2917" stroke="#292D32" stroke-width="1.5" stroke-linecap="round" stroke-linejoin="round"/>
<path d="M12.6984 2.39084L6.46003 8.62917C6.22253 8.86667 5.98503 9.33375 5.93753 9.67417L5.59711 12.0571C5.47044 12.92 6.08003 13.5217 6.94294 13.4029L9.32586 13.0625C9.65836 13.015 10.1254 12.7775 10.3709 12.54L16.6092 6.30167C17.6859 5.225 18.1925 3.97417 16.6092 2.39084C15.0259 0.807502 13.775 1.31417 12.6984 2.39084Z" stroke="#292D32" stroke-width="1.5" stroke-miterlimit="10" stroke-linecap="round" stroke-linejoin="round"/>
<path d="M11.8037 3.28542C12.3341 5.1775 13.8145 6.65792 15.7145 7.19625" stroke="#292D32" stroke-width="1.5" stroke-miterlimit="10" stroke-linecap="round" stroke-linejoin="round"/>
</svg>
